<svg width="196" height="68" viewBox="0 0 196 68" fill="none" xmlns="http://www.w3.org/2000/svg">
<g filter="url(#filter0_d_162_165)">
<path d="M4 10C4 4.47715 8.47715 0 14 0H182C187.523 0 192 4.47715 192 10V50C192 55.5228 187.523 60 182 60H14C8.47715 60 4 55.5228 4 50V10Z" fill="#A22025"/>
</g>
<path d="M64.3892 37V22.4545H67.4645V34.4645H73.7003V37H64.3892ZM80.609 37.2131C79.5058 37.2131 78.5517 36.9787 77.7468 36.5099C76.9466 36.0365 76.3287 35.3783 75.8931 34.5355C75.4575 33.688 75.2397 32.7055 75.2397 31.5881C75.2397 30.4612 75.4575 29.4763 75.8931 28.6335C76.3287 27.786 76.9466 27.1278 77.7468 26.6591C78.5517 26.1856 79.5058 25.9489 80.609 25.9489C81.7122 25.9489 82.6639 26.1856 83.4641 26.6591C84.2691 27.1278 84.8893 27.786 85.3249 28.6335C85.7605 29.4763 85.9783 30.4612 85.9783 31.5881C85.9783 32.7055 85.7605 33.688 85.3249 34.5355C84.8893 35.3783 84.2691 36.0365 83.4641 36.5099C82.6639 36.9787 81.7122 37.2131 80.609 37.2131ZM80.6232 34.8693C81.1251 34.8693 81.5442 34.7273 81.8803 34.4432C82.2165 34.1544 82.4698 33.7614 82.6403 33.2642C82.8155 32.767 82.9031 32.2012 82.9031 31.5668C82.9031 30.9323 82.8155 30.3665 82.6403 29.8693C82.4698 29.3722 82.2165 28.9792 81.8803 28.6903C81.5442 28.4015 81.1251 28.2571 80.6232 28.2571C80.1166 28.2571 79.6905 28.4015 79.3448 28.6903C79.0039 28.9792 78.7459 29.3722 78.5707 29.8693C78.4002 30.3665 78.315 30.9323 78.315 31.5668C78.315 32.2012 78.4002 32.767 78.5707 33.2642C78.7459 33.7614 79.0039 34.1544 79.3448 34.4432C79.6905 34.7273 80.1166 34.8693 80.6232 34.8693ZM92.8604 41.3182C91.8803 41.3182 91.0399 41.1832 90.3391 40.9134C89.6431 40.6482 89.0891 40.286 88.6772 39.8267C88.2653 39.3674 87.9978 38.8513 87.8746 38.2784L90.6729 37.902C90.7582 38.1198 90.8931 38.3234 91.0778 38.5128C91.2624 38.7022 91.5063 38.8537 91.8093 38.9673C92.1171 39.0857 92.4911 39.1449 92.9315 39.1449C93.5896 39.1449 94.1317 38.9839 94.5579 38.6619C94.9888 38.3447 95.2042 37.812 95.2042 37.0639V35.0682H95.0763C94.9438 35.3712 94.7449 35.6577 94.4798 35.9276C94.2146 36.1974 93.8737 36.4176 93.457 36.5881C93.0404 36.7585 92.5432 36.8438 91.9656 36.8438C91.1464 36.8438 90.4007 36.6544 89.7283 36.2756C89.0607 35.892 88.5281 35.3073 88.1303 34.5213C87.7373 33.7306 87.5408 32.7315 87.5408 31.5241C87.5408 30.2884 87.7421 29.2562 88.1445 28.4276C88.547 27.599 89.082 26.9787 89.7496 26.5668C90.422 26.1548 91.1583 25.9489 91.9585 25.9489C92.5692 25.9489 93.0806 26.053 93.4925 26.2614C93.9045 26.465 94.2359 26.7206 94.4869 27.0284C94.7425 27.3314 94.939 27.6297 95.0763 27.9233H95.19V26.0909H98.1942V37.1065C98.1942 38.0346 97.967 38.8111 97.5124 39.4361C97.0579 40.0611 96.4281 40.5298 95.6232 40.8423C94.823 41.1596 93.9021 41.3182 92.8604 41.3182ZM92.9244 34.571C93.4121 34.571 93.824 34.4503 94.1602 34.2088C94.5011 33.9626 94.7615 33.6122 94.9414 33.1577C95.1261 32.6984 95.2184 32.1491 95.2184 31.5099C95.2184 30.8707 95.1284 30.3168 94.9485 29.848C94.7686 29.3745 94.5082 29.0076 94.1673 28.7472C93.8263 28.4867 93.4121 28.3565 92.9244 28.3565C92.4272 28.3565 92.0082 28.4915 91.6673 28.7614C91.3263 29.0265 91.0683 29.3958 90.8931 29.8693C90.7179 30.3428 90.6303 30.8897 90.6303 31.5099C90.6303 32.1397 90.7179 32.6842 90.8931 33.1435C91.073 33.598 91.3311 33.9508 91.6673 34.2017C92.0082 34.4479 92.4272 34.571 92.9244 34.571ZM105.531 37.2131C104.428 37.2131 103.474 36.9787 102.669 36.5099C101.868 36.0365 101.251 35.3783 100.815 34.5355C100.379 33.688 100.162 32.7055 100.162 31.5881C100.162 30.4612 100.379 29.4763 100.815 28.6335C101.251 27.786 101.868 27.1278 102.669 26.6591C103.474 26.1856 104.428 25.9489 105.531 25.9489C106.634 25.9489 107.586 26.1856 108.386 26.6591C109.191 27.1278 109.811 27.786 110.247 28.6335C110.682 29.4763 110.9 30.4612 110.9 31.5881C110.9 32.7055 110.682 33.688 110.247 34.5355C109.811 35.3783 109.191 36.0365 108.386 36.5099C107.586 36.9787 106.634 37.2131 105.531 37.2131ZM105.545 34.8693C106.047 34.8693 106.466 34.7273 106.802 34.4432C107.138 34.1544 107.392 33.7614 107.562 33.2642C107.737 32.767 107.825 32.2012 107.825 31.5668C107.825 30.9323 107.737 30.3665 107.562 29.8693C107.392 29.3722 107.138 28.9792 106.802 28.6903C106.466 28.4015 106.047 28.2571 105.545 28.2571C105.038 28.2571 104.612 28.4015 104.267 28.6903C103.926 28.9792 103.668 29.3722 103.493 29.8693C103.322 30.3665 103.237 30.9323 103.237 31.5668C103.237 32.2012 103.322 32.767 103.493 33.2642C103.668 33.7614 103.926 34.1544 104.267 34.4432C104.612 34.7273 105.038 34.8693 105.545 34.8693ZM119.863 32.3551V26.0909H122.889V37H119.984V35.0185H119.87C119.624 35.6577 119.215 36.1714 118.642 36.5597C118.074 36.9479 117.38 37.142 116.561 37.142C115.832 37.142 115.19 36.9763 114.636 36.6449C114.082 36.3134 113.649 35.8423 113.336 35.2315C113.029 34.6207 112.872 33.8892 112.868 33.0369V26.0909H115.893V32.4972C115.898 33.1411 116.071 33.6501 116.412 34.0241C116.752 34.3982 117.209 34.5852 117.782 34.5852C118.147 34.5852 118.488 34.5024 118.805 34.3366C119.122 34.1662 119.378 33.9152 119.572 33.5838C119.771 33.2524 119.868 32.8428 119.863 32.3551ZM131.112 26.0909V28.3636H124.542V26.0909H131.112ZM126.033 23.4773H129.059V33.6477C129.059 33.9271 129.102 34.1449 129.187 34.3011C129.272 34.4527 129.39 34.5592 129.542 34.6207C129.698 34.6823 129.878 34.7131 130.082 34.7131C130.224 34.7131 130.366 34.7012 130.508 34.6776C130.65 34.6491 130.759 34.6278 130.835 34.6136L131.31 36.8651C131.159 36.9124 130.946 36.9669 130.671 37.0284C130.397 37.0947 130.063 37.1349 129.67 37.1491C128.941 37.1776 128.301 37.0805 127.752 36.858C127.208 36.6354 126.784 36.2898 126.481 35.821C126.178 35.3523 126.029 34.7604 126.033 34.0455V23.4773Z" fill="#FBCD36"/>
<defs>
<filter id="filter0_d_162_165" x="0" y="0" width="196" height="68" filterUnits="userSpaceOnUse" color-interpolation-filters="sRGB">
<feFlood flood-opacity="0" result="BackgroundImageFix"/>
<feColorMatrix in="SourceAlpha" type="matrix" values="0 0 0 0 0 0 0 0 0 0 0 0 0 0 0 0 0 0 127 0" result="hardAlpha"/>
<feOffset dy="4"/>
<feGaussianBlur stdDeviation="2"/>
<feComposite in2="hardAlpha" operator="out"/>
<feColorMatrix type="matrix" values="0 0 0 0 0 0 0 0 0 0 0 0 0 0 0 0 0 0 0.25 0"/>
<feBlend mode="normal" in2="BackgroundImageFix" result="effect1_dropShadow_162_165"/>
<feBlend mode="normal" in="SourceGraphic" in2="effect1_dropShadow_162_165" result="shape"/>
</filter>
</defs>
</svg>
