<svg width="307" height="44" viewBox="0 0 307 44" fill="none" xmlns="http://www.w3.org/2000/svg">
<g filter="url(#filter0_d_154_12)">
<path d="M4.00044 6.5625V0.477272H32.6709V6.5625H21.9834V35.3864H14.6879V6.5625H4.00044ZM37.3925 35.3864V0.477272H60.9152V6.5625H44.7732V14.8807H59.705V20.9659H44.7732V29.3011H60.9834V35.3864H37.3925ZM66.7831 35.3864V0.477272H74.1638V15.8693H74.624L87.1865 0.477272H96.0331L83.0786 16.108L96.1865 35.3864H87.357L77.7945 21.0341L74.1638 25.4659V35.3864H66.7831ZM129.076 0.477272V35.3864H122.701L107.513 13.4148H107.258V35.3864H99.8769V0.477272H106.354L121.422 22.4318H121.729V0.477272H129.076ZM167.253 17.9318C167.253 21.7386 166.532 24.9773 165.089 27.6477C163.657 30.3182 161.702 32.358 159.225 33.767C156.759 35.1648 153.986 35.8636 150.907 35.8636C147.804 35.8636 145.02 35.1591 142.554 33.75C140.089 32.3409 138.14 30.3011 136.708 27.6307C135.276 24.9602 134.56 21.7273 134.56 17.9318C134.56 14.125 135.276 10.8864 136.708 8.21591C138.14 5.54545 140.089 3.51136 142.554 2.11364C145.02 0.704545 147.804 -9.53674e-07 150.907 -9.53674e-07C153.986 -9.53674e-07 156.759 0.704545 159.225 2.11364C161.702 3.51136 163.657 5.54545 165.089 8.21591C166.532 10.8864 167.253 14.125 167.253 17.9318ZM159.77 17.9318C159.77 15.4659 159.401 13.3864 158.662 11.6932C157.935 10 156.907 8.71591 155.577 7.84091C154.248 6.96591 152.691 6.52841 150.907 6.52841C149.123 6.52841 147.566 6.96591 146.236 7.84091C144.907 8.71591 143.873 10 143.134 11.6932C142.407 13.3864 142.043 15.4659 142.043 17.9318C142.043 20.3977 142.407 22.4773 143.134 24.1705C143.873 25.8636 144.907 27.1477 146.236 28.0227C147.566 28.8977 149.123 29.3352 150.907 29.3352C152.691 29.3352 154.248 28.8977 155.577 28.0227C156.907 27.1477 157.935 25.8636 158.662 24.1705C159.401 22.4773 159.77 20.3977 159.77 17.9318Z" fill="white"/>
<path d="M195.868 11.7614C195.63 10.9318 195.294 10.1989 194.863 9.5625C194.431 8.91477 193.902 8.36932 193.277 7.92614C192.664 7.47159 191.959 7.125 191.164 6.88636C190.38 6.64773 189.51 6.52841 188.556 6.52841C186.772 6.52841 185.204 6.97159 183.851 7.85795C182.51 8.74432 181.465 10.0341 180.715 11.7273C179.965 13.4091 179.59 15.4659 179.59 17.8977C179.59 20.3295 179.959 22.3977 180.698 24.1023C181.437 25.8068 182.482 27.108 183.834 28.0057C185.187 28.892 186.783 29.3352 188.624 29.3352C190.294 29.3352 191.721 29.0398 192.902 28.4489C194.096 27.8466 195.005 27 195.63 25.9091C196.266 24.8182 196.584 23.5284 196.584 22.0398L198.084 22.2614H189.084V16.7045H203.692V21.1023C203.692 24.1705 203.044 26.8068 201.749 29.0114C200.454 31.2045 198.669 32.8977 196.397 34.0909C194.124 35.2727 191.522 35.8636 188.59 35.8636C185.317 35.8636 182.442 35.142 179.965 33.6989C177.488 32.2443 175.556 30.1818 174.169 27.5114C172.794 24.8295 172.107 21.6477 172.107 17.9659C172.107 15.1364 172.516 12.6136 173.334 10.3977C174.164 8.17045 175.323 6.28409 176.812 4.73864C178.3 3.19318 180.033 2.01704 182.01 1.21023C183.988 0.403408 186.13 -9.53674e-07 188.437 -9.53674e-07C190.414 -9.53674e-07 192.255 0.289772 193.959 0.869318C195.664 1.4375 197.175 2.24432 198.493 3.28977C199.823 4.33523 200.908 5.57954 201.749 7.02273C202.59 8.45454 203.13 10.0341 203.368 11.7614H195.868ZM209.236 35.3864V0.477272H223.009C225.645 0.477272 227.895 0.948863 229.759 1.89205C231.634 2.82386 233.06 4.14773 234.037 5.86364C235.026 7.56818 235.52 9.57386 235.52 11.8807C235.52 14.1989 235.02 16.1932 234.02 17.8636C233.02 19.5227 231.571 20.7955 229.674 21.6818C227.787 22.5682 225.503 23.0114 222.821 23.0114H213.6V17.0795H221.628C223.037 17.0795 224.208 16.8864 225.14 16.5C226.071 16.1136 226.765 15.5341 227.219 14.7614C227.685 13.9886 227.918 13.0284 227.918 11.8807C227.918 10.7216 227.685 9.74432 227.219 8.94886C226.765 8.15341 226.066 7.55114 225.123 7.14205C224.191 6.72159 223.015 6.51136 221.594 6.51136H216.617V35.3864H209.236ZM228.089 19.5L236.765 35.3864H228.617L220.128 19.5H228.089ZM262.299 0.477272H269.679V23.1477C269.679 25.6932 269.071 27.9205 267.856 29.8295C266.651 31.7386 264.964 33.2273 262.793 34.2955C260.623 35.3523 258.094 35.8807 255.208 35.8807C252.31 35.8807 249.776 35.3523 247.606 34.2955C245.435 33.2273 243.748 31.7386 242.543 29.8295C241.339 27.9205 240.736 25.6932 240.736 23.1477V0.477272H248.117V22.517C248.117 23.8466 248.407 25.0284 248.986 26.0625C249.577 27.0966 250.407 27.9091 251.475 28.5C252.543 29.0909 253.787 29.3864 255.208 29.3864C256.64 29.3864 257.884 29.0909 258.941 28.5C260.009 27.9091 260.833 27.0966 261.412 26.0625C262.003 25.0284 262.299 23.8466 262.299 22.517V0.477272ZM275.752 35.3864V0.477272H289.729C292.297 0.477272 294.439 0.857954 296.155 1.61932C297.871 2.38068 299.161 3.4375 300.025 4.78977C300.888 6.13068 301.32 7.67614 301.32 9.42614C301.32 10.7898 301.047 11.9886 300.502 13.0227C299.956 14.0455 299.206 14.8864 298.252 15.5455C297.309 16.1932 296.229 16.6534 295.013 16.9261V17.267C296.343 17.3239 297.587 17.6989 298.746 18.392C299.917 19.0852 300.866 20.0568 301.593 21.3068C302.32 22.5455 302.684 24.0227 302.684 25.7386C302.684 27.5909 302.223 29.2443 301.303 30.6989C300.394 32.142 299.047 33.2841 297.263 34.125C295.479 34.9659 293.28 35.3864 290.667 35.3864H275.752ZM283.133 29.3523H289.15C291.206 29.3523 292.706 28.9602 293.65 28.1761C294.593 27.3807 295.064 26.3239 295.064 25.0057C295.064 24.0398 294.831 23.1875 294.366 22.4489C293.9 21.7102 293.235 21.1307 292.371 20.7102C291.519 20.2898 290.502 20.0795 289.32 20.0795H283.133V29.3523ZM283.133 15.0852H288.604C289.616 15.0852 290.513 14.9091 291.297 14.5568C292.093 14.1932 292.718 13.6818 293.172 13.0227C293.638 12.3636 293.871 11.5739 293.871 10.6534C293.871 9.39205 293.422 8.375 292.525 7.60227C291.638 6.82954 290.377 6.44318 288.741 6.44318H283.133V15.0852Z" fill="#FBD436"/>
</g>
<defs>
<filter id="filter0_d_154_12" x="0" y="0" width="306.684" height="43.8807" filterUnits="userSpaceOnUse" color-interpolation-filters="sRGB">
<feFlood flood-opacity="0" result="BackgroundImageFix"/>
<feColorMatrix in="SourceAlpha" type="matrix" values="0 0 0 0 0 0 0 0 0 0 0 0 0 0 0 0 0 0 127 0" result="hardAlpha"/>
<feOffset dy="4"/>
<feGaussianBlur stdDeviation="2"/>
<feComposite in2="hardAlpha" operator="out"/>
<feColorMatrix type="matrix" values="0 0 0 0 0 0 0 0 0 0 0 0 0 0 0 0 0 0 0.25 0"/>
<feBlend mode="normal" in2="BackgroundImageFix" result="effect1_dropShadow_154_12"/>
<feBlend mode="normal" in="SourceGraphic" in2="effect1_dropShadow_154_12" result="shape"/>
</filter>
</defs>
</svg>
