<svg width="34" height="34" viewBox="0 0 34 34" fill="none" xmlns="http://www.w3.org/2000/svg">
<path d="M8.5 31.1667C7.72083 31.1667 7.05406 30.8895 6.49967 30.3351C5.94528 29.7807 5.66761 29.1135 5.66667 28.3333V25.5H4.25V22.6667H5.66667V18.4167H4.25V15.5833H5.66667V11.3333H4.25V8.50001H5.66667V5.66668C5.66667 4.88751 5.94433 4.22073 6.49967 3.66634C7.055 3.11195 7.72178 2.83429 8.5 2.83334H25.5C26.2792 2.83334 26.9464 3.11101 27.5017 3.66634C28.0571 4.22168 28.3343 4.88845 28.3333 5.66668V28.3333C28.3333 29.1125 28.0561 29.7798 27.5017 30.3351C26.9474 30.8904 26.2801 31.1676 25.5 31.1667H8.5ZM13.4583 24.0833H15.5833V18.4167C16.1972 18.2514 16.7049 17.9152 17.1062 17.408C17.5076 16.9008 17.7083 16.328 17.7083 15.6896V9.91668H16.2917V15.2646H15.2292V9.91668H13.8125V15.2646H12.75V9.91668H11.3333V15.6896C11.3333 16.3271 11.534 16.8999 11.9354 17.408C12.3368 17.9161 12.8444 18.2523 13.4583 18.4167V24.0833ZM21.25 24.0833H23.375V9.91668C22.1944 9.91668 21.191 10.3299 20.3646 11.1563C19.5382 11.9826 19.125 12.9861 19.125 14.1667V18.4167H21.25V24.0833Z" fill="#550508"/>
</svg>
