<svg width="34" height="34" viewBox="0 0 34 34" fill="none" xmlns="http://www.w3.org/2000/svg">
<path d="M17 24.4729L11.1208 28.0146C10.8611 28.1799 10.5896 28.2507 10.3062 28.2271C10.0229 28.2035 9.77498 28.109 9.56248 27.9437C9.34998 27.7785 9.1847 27.5721 9.06664 27.3247C8.94859 27.0772 8.92498 26.7995 8.99581 26.4917L10.5541 19.7979L5.34789 15.3C5.11178 15.0875 4.96445 14.8452 4.90589 14.5732C4.84734 14.3012 4.86481 14.0359 4.95831 13.7771C5.05181 13.5183 5.19348 13.3058 5.38331 13.1396C5.57314 12.9734 5.83287 12.8671 6.16248 12.8208L13.0333 12.2187L15.6896 5.91458C15.8076 5.63124 15.9908 5.41874 16.2392 5.27707C16.4876 5.13541 16.7412 5.06458 17 5.06458C17.2588 5.06458 17.5123 5.13541 17.7607 5.27707C18.0091 5.41874 18.1923 5.63124 18.3104 5.91458L20.9666 12.2187L27.8375 12.8208C28.168 12.868 28.4278 12.9743 28.6166 13.1396C28.8055 13.3049 28.9472 13.5174 29.0416 13.7771C29.1361 14.0368 29.154 14.3027 29.0955 14.5747C29.0369 14.8467 28.8891 15.0884 28.6521 15.3L23.4458 19.7979L25.0041 26.4917C25.075 26.7986 25.0514 27.0763 24.9333 27.3247C24.8153 27.573 24.65 27.7794 24.4375 27.9437C24.225 28.1081 23.9771 28.2025 23.6937 28.2271C23.4104 28.2516 23.1389 28.1808 22.8791 28.0146L17 24.4729Z" fill="#550508"/>
</svg>
