<svg width="24" height="24" viewBox="0 0 24 24" fill="none" xmlns="http://www.w3.org/2000/svg">
<path d="M12.0001 20.45L19.3501 13.1C19.6001 12.85 19.8918 12.729 20.2251 12.737C20.5584 12.745 20.8501 12.8743 21.1001 13.125C21.3501 13.3757 21.4751 13.6673 21.4751 14C21.4751 14.3327 21.3501 14.6243 21.1001 14.875L13.4251 22.575C13.2251 22.775 13.0001 22.925 12.7501 23.025C12.5001 23.125 12.2501 23.175 12.0001 23.175C11.7501 23.175 11.5001 23.125 11.2501 23.025C11.0001 22.925 10.7751 22.775 10.5751 22.575L2.87509 14.875C2.62509 14.625 2.50409 14.329 2.51209 13.987C2.52009 13.645 2.64942 13.3493 2.90009 13.1C3.15076 12.8507 3.44242 12.7257 3.77509 12.725C4.10776 12.7243 4.39942 12.8493 4.65009 13.1L12.0001 20.45Z" fill="#550508"/>
</svg>
