<svg width="34" height="35" viewBox="0 0 34 35" fill="none" xmlns="http://www.w3.org/2000/svg">
<path d="M17 30.625C14.025 30.625 11.3924 29.6956 9.10208 27.8367C6.81181 25.9778 5.32431 23.6017 4.63958 20.7083C4.54514 20.3437 4.61597 20.0098 4.85208 19.7065C5.08819 19.4031 5.40694 19.2267 5.80833 19.1771C6.18611 19.1285 6.52847 19.2014 6.83542 19.3958C7.14236 19.5903 7.35486 19.8819 7.47292 20.2708C8.03958 22.4583 9.20833 24.2448 10.9792 25.6302C12.75 27.0156 14.7569 27.7083 17 27.7083C19.7625 27.7083 22.1061 26.7181 24.0309 24.7377C25.9557 22.7573 26.9176 20.3447 26.9167 17.5C26.9157 14.6553 25.9538 12.2432 24.0309 10.2637C22.108 8.28431 19.7644 7.29361 17 7.29167C15.3708 7.29167 13.8479 7.68056 12.4312 8.45833C11.0146 9.23611 9.82222 10.3056 8.85417 11.6667H11.3333C11.7347 11.6667 12.0714 11.8067 12.3434 12.0867C12.6154 12.3667 12.7509 12.7128 12.75 13.125C12.7491 13.5372 12.6131 13.8838 12.342 14.1648C12.0709 14.4458 11.7347 14.5853 11.3333 14.5833H5.66667C5.26528 14.5833 4.92906 14.4433 4.658 14.1633C4.38694 13.8833 4.25094 13.5372 4.25 13.125V7.29167C4.25 6.87847 4.386 6.53236 4.658 6.25333C4.93 5.97431 5.26622 5.83431 5.66667 5.83333C6.06711 5.83236 6.40381 5.97236 6.67675 6.25333C6.94969 6.53431 7.08522 6.88042 7.08333 7.29167V9.26042C8.2875 7.70486 9.75753 6.50174 11.4934 5.65104C13.2293 4.80035 15.0648 4.375 17 4.375C18.7708 4.375 20.4297 4.7216 21.9767 5.41479C23.5237 6.10799 24.8696 7.04326 26.0142 8.22062C27.1589 9.39799 28.0679 10.7834 28.7413 12.3769C29.4147 13.9703 29.7509 15.6781 29.75 17.5C29.7491 19.3219 29.4128 21.0297 28.7413 22.6231C28.0698 24.2166 27.1608 25.602 26.0142 26.7794C24.8677 27.9567 23.5219 28.8925 21.9767 29.5867C20.4316 30.2808 18.7727 30.6269 17 30.625ZM18.4167 16.9167L21.9583 20.5625C22.2181 20.8299 22.3479 21.1701 22.3479 21.5833C22.3479 21.9965 22.2181 22.3368 21.9583 22.6042C21.6986 22.8715 21.3681 23.0052 20.9667 23.0052C20.5653 23.0052 20.2347 22.8715 19.975 22.6042L16.0083 18.5208C15.8667 18.375 15.7604 18.2112 15.6896 18.0294C15.6187 17.8476 15.5833 17.659 15.5833 17.4635V11.6667C15.5833 11.2535 15.7193 10.9074 15.9913 10.6283C16.2633 10.3493 16.5996 10.2093 17 10.2083C17.4004 10.2074 17.7371 10.3474 18.0101 10.6283C18.283 10.9093 18.4186 11.2554 18.4167 11.6667V16.9167Z" fill="#550508"/>
</svg>
