<svg width="67" height="15" viewBox="0 0 67 15" fill="none" xmlns="http://www.w3.org/2000/svg">
<path d="M8.35893 4.38211C8.30211 3.80919 8.05827 3.36411 7.6274 3.04688C7.19653 2.72965 6.61177 2.57103 5.87314 2.57103C5.37124 2.57103 4.94747 2.64205 4.60183 2.7841C4.25619 2.92141 3.99103 3.11317 3.80637 3.35938C3.62645 3.60559 3.53649 3.88495 3.53649 4.19745C3.52702 4.45787 3.58147 4.68514 3.69984 4.87927C3.82295 5.0734 3.99103 5.24148 4.2041 5.38353C4.41717 5.52084 4.66338 5.64158 4.94274 5.74574C5.22209 5.84518 5.52039 5.9304 5.83762 6.00143L7.14444 6.31393C7.77891 6.45597 8.3613 6.64536 8.8916 6.88211C9.4219 7.11885 9.88119 7.41004 10.2694 7.75569C10.6577 8.10133 10.9584 8.50853 11.1714 8.97728C11.3892 9.44603 11.5005 9.98343 11.5052 10.5895C11.5005 11.4796 11.2732 12.2514 10.8234 12.9048C10.3783 13.5535 9.7344 14.0578 8.8916 14.4176C8.05353 14.7727 7.04264 14.9503 5.85893 14.9503C4.68469 14.9503 3.66196 14.7704 2.79075 14.4105C1.92427 14.0507 1.24719 13.518 0.759499 12.8125C0.276545 12.1023 0.0232304 11.224 -0.000443906 10.1776H2.97541C3.00855 10.6653 3.14823 11.0724 3.39444 11.3992C3.64539 11.7211 3.9792 11.965 4.39586 12.1307C4.81726 12.2917 5.29312 12.3722 5.82342 12.3722C6.34425 12.3722 6.79643 12.2964 7.17995 12.1449C7.56821 11.9934 7.86887 11.7827 8.08194 11.5128C8.29501 11.2429 8.40155 10.9328 8.40155 10.5824C8.40155 10.2557 8.30448 9.98107 8.11035 9.75853C7.92096 9.53599 7.6416 9.3466 7.27228 9.19035C6.9077 9.0341 6.46026 8.89205 5.92995 8.76421L4.34615 8.36648C3.11982 8.06819 2.15154 7.6018 1.44132 6.96733C0.73109 6.33286 0.378344 5.47822 0.383079 4.40341C0.378344 3.52273 0.612719 2.75332 1.0862 2.09518C1.56442 1.43703 2.2202 0.923301 3.05353 0.553982C3.88687 0.184664 4.83384 5.00679e-06 5.89444 5.00679e-06C6.97399 5.00679e-06 7.91622 0.184664 8.72115 0.553982C9.53081 0.923301 10.1605 1.43703 10.6104 2.09518C11.0602 2.75332 11.2922 3.51563 11.3064 4.38211H8.35893ZM18.4885 14.9574C17.3664 14.9574 16.4005 14.7301 15.5908 14.2756C14.7859 13.8163 14.1656 13.1676 13.73 12.3296C13.2944 11.4867 13.0766 10.4901 13.0766 9.33949C13.0766 8.21733 13.2944 7.23249 13.73 6.38495C14.1656 5.53741 14.7788 4.8769 15.5695 4.40341C16.365 3.92993 17.2977 3.69319 18.3678 3.69319C19.0875 3.69319 19.7575 3.80919 20.3778 4.0412C21.0028 4.26847 21.5473 4.61175 22.0113 5.07103C22.48 5.53031 22.8446 6.10796 23.105 6.80398C23.3654 7.49527 23.4957 8.30493 23.4957 9.23296V10.0639H14.284V8.18893H20.6476C20.6476 7.75332 20.5529 7.36743 20.3635 7.03126C20.1742 6.69508 19.9114 6.4323 19.5752 6.2429C19.2438 6.04877 18.8579 5.95171 18.4175 5.95171C17.9582 5.95171 17.551 6.05824 17.1959 6.27131C16.8456 6.47965 16.5709 6.76137 16.3721 7.11648C16.1732 7.46686 16.0714 7.85749 16.0667 8.28836V10.071C16.0667 10.6108 16.1661 11.0772 16.365 11.4702C16.5686 11.8632 16.855 12.1662 17.2243 12.3793C17.5937 12.5923 18.0316 12.6989 18.5383 12.6989C18.8744 12.6989 19.1822 12.6515 19.4616 12.5568C19.7409 12.4621 19.98 12.3201 20.1789 12.1307C20.3778 11.9413 20.5293 11.7093 20.6334 11.4347L23.4317 11.6193C23.2897 12.2917 22.9985 12.8788 22.5582 13.3807C22.1225 13.8778 21.5591 14.2661 20.8678 14.5455C20.1813 14.8201 19.3882 14.9574 18.4885 14.9574ZM28.5809 14.9503C27.8849 14.9503 27.2646 14.8296 26.7201 14.5881C26.1756 14.3419 25.7447 13.9796 25.4275 13.5014C25.115 13.0185 24.9587 12.4171 24.9587 11.6974C24.9587 11.0914 25.07 10.5824 25.2925 10.1705C25.5151 9.75853 25.8181 9.42709 26.2016 9.17614C26.5851 8.92519 27.0207 8.7358 27.5084 8.60796C28.0009 8.48012 28.517 8.39016 29.0567 8.33807C29.6912 8.27179 30.2026 8.21023 30.5908 8.15341C30.9791 8.09186 31.2608 8.0019 31.436 7.88353C31.6112 7.76516 31.6988 7.58997 31.6988 7.35796V7.31535C31.6988 6.86554 31.5567 6.51752 31.2726 6.27131C30.9933 6.0251 30.5956 5.90199 30.0795 5.90199C29.5349 5.90199 29.1017 6.02273 28.7797 6.26421C28.4578 6.50095 28.2447 6.79925 28.1405 7.1591L25.3422 6.93182C25.4843 6.26894 25.7636 5.69603 26.1803 5.21307C26.597 4.72538 27.1344 4.35133 27.7925 4.09091C28.4554 3.82576 29.2224 3.69319 30.0937 3.69319C30.6997 3.69319 31.2797 3.76421 31.8337 3.90626C32.3924 4.0483 32.8872 4.26847 33.3181 4.56677C33.7537 4.86506 34.097 5.24858 34.3479 5.71733C34.5989 6.18135 34.7243 6.73769 34.7243 7.38637V14.7443H31.855V13.2315H31.7698C31.5946 13.5724 31.3602 13.8731 31.0667 14.1335C30.7731 14.3892 30.4204 14.5904 30.0084 14.7372C29.5965 14.8793 29.1207 14.9503 28.5809 14.9503ZM29.4474 12.8622C29.8924 12.8622 30.2854 12.7746 30.6263 12.5994C30.9672 12.4195 31.2348 12.178 31.4289 11.875C31.623 11.572 31.7201 11.2287 31.7201 10.8452V9.68751C31.6254 9.74906 31.4952 9.80588 31.3295 9.85796C31.1685 9.90531 30.9862 9.95029 30.7826 9.9929C30.579 10.0308 30.3754 10.0663 30.1718 10.0994C29.9682 10.1278 29.7835 10.1539 29.6178 10.1776C29.2627 10.2296 28.9526 10.3125 28.6874 10.4261C28.4223 10.5398 28.2163 10.6937 28.0695 10.8878C27.9227 11.0772 27.8493 11.3139 27.8493 11.598C27.8493 12.0099 27.9985 12.3248 28.2968 12.5426C28.5998 12.7557 28.9833 12.8622 29.4474 12.8622ZM37.0716 14.7443V3.83523H40.0049V5.73864H40.1185C40.3174 5.06156 40.6512 4.55019 41.1199 4.20455C41.5887 3.85417 42.1285 3.67898 42.7393 3.67898C42.8908 3.67898 43.0541 3.68845 43.2293 3.70739C43.4045 3.72633 43.5584 3.75237 43.691 3.78552V6.47018C43.5489 6.42756 43.3524 6.38968 43.1015 6.35654C42.8505 6.3234 42.6209 6.30682 42.4126 6.30682C41.9675 6.30682 41.5698 6.40389 41.2194 6.59802C40.8737 6.78741 40.5991 7.05256 40.3955 7.39347C40.1966 7.73438 40.0972 8.12737 40.0972 8.57245V14.7443H37.0716ZM49.6764 14.9574C48.559 14.9574 47.5978 14.7206 46.7929 14.2472C45.9927 13.7689 45.3772 13.1061 44.9463 12.2585C44.5202 11.411 44.3071 10.4356 44.3071 9.33239C44.3071 8.21497 44.5225 7.23485 44.9534 6.39205C45.389 5.54451 46.0069 4.884 46.8071 4.41052C47.6073 3.9323 48.559 3.69319 49.6622 3.69319C50.6139 3.69319 51.4472 3.86601 52.1622 4.21165C52.8772 4.5573 53.443 5.04262 53.8596 5.66762C54.2763 6.29262 54.5059 7.02652 54.5486 7.86932H51.6934C51.613 7.32482 51.3999 6.88684 51.0542 6.5554C50.7133 6.21923 50.2659 6.05114 49.7119 6.05114C49.2432 6.05114 48.8336 6.17898 48.4832 6.43466C48.1376 6.68561 47.8677 7.05256 47.6736 7.53552C47.4794 8.01847 47.3824 8.60323 47.3824 9.28978C47.3824 9.9858 47.4771 10.5777 47.6665 11.0653C47.8606 11.553 48.1328 11.9247 48.4832 12.1804C48.8336 12.4361 49.2432 12.5639 49.7119 12.5639C50.0576 12.5639 50.3677 12.4929 50.6423 12.3509C50.9217 12.2088 51.1513 12.0028 51.3312 11.733C51.5159 11.4583 51.6366 11.1293 51.6934 10.7457H54.5486C54.5012 11.5791 54.2739 12.313 53.8667 12.9474C53.4643 13.5772 52.9079 14.0696 52.1977 14.4247C51.4875 14.7798 50.647 14.9574 49.6764 14.9574ZM59.5113 8.43751V14.7443H56.4857V0.198869H59.426V5.75995H59.5539C59.8001 5.11601 60.1978 4.61175 60.7471 4.24716C61.2963 3.87785 61.9852 3.69319 62.8138 3.69319C63.5714 3.69319 64.2319 3.85891 64.7954 4.19035C65.3635 4.51705 65.8039 4.98817 66.1164 5.6037C66.4336 6.21449 66.5899 6.94603 66.5851 7.7983V14.7443H63.5596V8.33807C63.5643 7.66572 63.3939 7.14252 63.0482 6.76847C62.7073 6.39442 62.2291 6.20739 61.6135 6.20739C61.2016 6.20739 60.837 6.29499 60.5198 6.47018C60.2073 6.64537 59.9611 6.90105 59.7812 7.23722C59.606 7.56866 59.516 7.96876 59.5113 8.43751Z" fill="#550508"/>
</svg>
