<svg width="55" height="55" viewBox="0 0 55 55" fill="none" xmlns="http://www.w3.org/2000/svg">
<path d="M9.16699 13.75C9.16699 13.1422 9.40844 12.5593 9.83821 12.1295C10.268 11.6998 10.8509 11.4583 11.4587 11.4583H43.542C44.1498 11.4583 44.7327 11.6998 45.1624 12.1295C45.5922 12.5593 45.8337 13.1422 45.8337 13.75C45.8337 14.3578 45.5922 14.9407 45.1624 15.3705C44.7327 15.8002 44.1498 16.0417 43.542 16.0417H11.4587C10.8509 16.0417 10.268 15.8002 9.83821 15.3705C9.40844 14.9407 9.16699 14.3578 9.16699 13.75ZM9.16699 27.5C9.16699 26.8922 9.40844 26.3093 9.83821 25.8795C10.268 25.4498 10.8509 25.2083 11.4587 25.2083H43.542C44.1498 25.2083 44.7327 25.4498 45.1624 25.8795C45.5922 26.3093 45.8337 26.8922 45.8337 27.5C45.8337 28.1078 45.5922 28.6907 45.1624 29.1205C44.7327 29.5502 44.1498 29.7917 43.542 29.7917H11.4587C10.8509 29.7917 10.268 29.5502 9.83821 29.1205C9.40844 28.6907 9.16699 28.1078 9.16699 27.5ZM11.4587 38.9583C10.8509 38.9583 10.268 39.1998 9.83821 39.6295C9.40844 40.0593 9.16699 40.6422 9.16699 41.25C9.16699 41.8578 9.40844 42.4407 9.83821 42.8705C10.268 43.3002 10.8509 43.5417 11.4587 43.5417H43.542C44.1498 43.5417 44.7327 43.3002 45.1624 42.8705C45.5922 42.4407 45.8337 41.8578 45.8337 41.25C45.8337 40.6422 45.5922 40.0593 45.1624 39.6295C44.7327 39.1998 44.1498 38.9583 43.542 38.9583H11.4587Z" fill="white"/>
</svg>
