<svg width="28" height="28" viewBox="0 0 28 28" fill="none" xmlns="http://www.w3.org/2000/svg">
<g clip-path="url(#clip0_154_67)">
<path fill-rule="evenodd" clip-rule="evenodd" d="M3.54395 13.1238C2.13811 13.1238 0.923029 11.9128 0.918945 10.3221L0.921279 10.2853C0.923223 10.2453 0.930612 10.1704 0.943445 10.0607C0.970279 9.83966 1.02686 9.47332 1.14528 8.92907C1.38211 7.83941 1.86336 6.04507 2.83986 3.28474C3.2412 2.14899 4.17686 1.36674 5.30736 1.24541C11.1155 0.629379 16.9724 0.629379 22.7805 1.24541C23.911 1.36674 24.8467 2.14957 25.248 3.28474C26.2245 6.04507 26.7064 7.83941 26.9426 8.92907C27.061 9.47332 27.1176 9.83966 27.1444 10.0607C27.1554 10.1476 27.1636 10.2347 27.1689 10.3221C27.1649 11.9128 25.9498 13.1238 24.5439 13.1238C23.1358 13.1238 21.9189 11.9087 21.9189 10.3145C21.9189 10.0824 21.8268 9.85987 21.6627 9.69577C21.4986 9.53168 21.276 9.43949 21.0439 9.43949C20.8119 9.43949 20.5893 9.53168 20.4252 9.69577C20.2611 9.85987 20.1689 10.0824 20.1689 10.3145C20.1689 11.9087 18.9521 13.1238 17.5439 13.1238C16.1358 13.1238 14.9189 11.9087 14.9189 10.3145C14.9189 10.0824 14.8268 9.85987 14.6627 9.69577C14.4986 9.53168 14.276 9.43949 14.0439 9.43949C13.8119 9.43949 13.5893 9.53168 13.4252 9.69577C13.2611 9.85987 13.1689 10.0824 13.1689 10.3145C13.1689 11.9087 11.9521 13.1238 10.5439 13.1238C9.13578 13.1238 7.91895 11.9087 7.91895 10.3145C7.91894 10.0824 7.82676 9.85987 7.66266 9.69577C7.49857 9.53168 7.27601 9.43949 7.04395 9.43949C6.81188 9.43949 6.58932 9.53168 6.42523 9.69577C6.26113 9.85987 6.16895 10.0824 6.16895 10.3145C6.16895 11.9087 4.95211 13.1238 3.54395 13.1238ZM2.04128 14.602V17.5012C2.04128 20.1186 2.14628 22.0786 2.2647 23.4535C2.43036 25.3832 3.9622 26.7977 5.85803 26.9138C7.59111 27.02 10.2599 27.1262 13.9996 27.1262C17.7388 27.1262 20.4081 27.02 22.1412 26.9138C24.037 26.7972 25.5689 25.3832 25.7345 23.4535C25.8529 22.0786 25.9579 20.1186 25.9579 17.5012V14.6347C25.504 14.7958 25.0257 14.8777 24.5439 14.8767C23.0955 14.8767 21.8355 14.1534 21.0439 13.0521C20.2529 14.1528 18.9924 14.8767 17.5439 14.8767C16.0955 14.8767 14.8355 14.1534 14.0439 13.0521C13.2529 14.1528 11.9924 14.8767 10.5439 14.8767C9.09553 14.8767 7.83553 14.1534 7.04395 13.0521C6.25294 14.1528 4.99236 14.8767 3.54395 14.8767C3.03047 14.8778 2.52116 14.7847 2.04128 14.602ZM13.9996 18.3762C12.6445 18.3762 11.7077 18.4753 11.0829 18.5873C10.6594 18.6632 10.3351 19.0132 10.3007 19.6257C10.2523 20.4907 10.2079 21.8499 10.2079 23.9178C10.2079 24.3845 10.5813 24.7613 11.0357 24.7689C11.9348 24.7845 12.9228 24.7924 13.9996 24.7928C15.0768 24.7924 16.0648 24.7845 16.9635 24.7689C17.1854 24.7634 17.3962 24.6713 17.551 24.5122C17.7057 24.3531 17.792 24.1397 17.7913 23.9178C17.7913 21.8499 17.7469 20.4907 17.6985 19.6257C17.6647 19.0132 17.3398 18.6632 16.9169 18.5873C16.2915 18.4753 15.3547 18.3762 13.9996 18.3762Z" fill="#550508"/>
</g>
<defs>
<clipPath id="clip0_154_67">
<rect width="28" height="28" fill="white"/>
</clipPath>
</defs>
</svg>
